<svg width="31" height="31" viewBox="0 0 31 31" fill="none" xmlns="http://www.w3.org/2000/svg">
<path d="M8.00187 1.53646C9.3232 0.535768 10.9363 -0.00395852 12.5938 2.18587e-05C13.0588 2.18587e-05 13.4288 0.242209 13.6439 0.408834C13.8841 0.598709 14.1089 0.840896 14.3104 1.08308C14.4532 1.25661 14.5313 1.47443 14.5312 1.69921V8.71877H12.4291C12.2005 8.0724 11.7509 7.52764 11.1595 7.18075C10.5682 6.83386 9.87327 6.70719 9.19757 6.82312C8.52187 6.93905 7.90891 7.29012 7.46702 7.81428C7.02514 8.33844 6.78277 9.00194 6.78277 9.68752C6.78277 10.3731 7.02514 11.0366 7.46702 11.5607C7.90891 12.0849 8.52187 12.436 9.19757 12.5519C9.87327 12.6678 10.5682 12.5412 11.1595 12.1943C11.7509 11.8474 12.2005 11.3026 12.4291 10.6563H14.5312V28.8978C14.5313 29.0413 14.4996 29.1829 14.4383 29.3126C14.377 29.4423 14.2876 29.5567 14.1767 29.6476C13.2816 30.38 12.0842 31 10.6562 31C8.35837 31 6.64756 29.8414 5.54125 28.4561C4.74641 27.469 4.202 26.3044 3.95444 25.0616C3.20168 24.8609 2.50373 24.4933 1.91231 23.9863C0.842812 23.0698 0 21.5838 0 19.375C0 18.2958 0.0716873 17.3213 0.2325 16.4688H6.29688C7.52912 16.4688 8.54437 17.3891 8.69937 18.5787C8.05505 18.8119 7.51384 19.2652 7.17131 19.8587C6.82877 20.4521 6.70694 21.1475 6.82732 21.8221C6.94771 22.4966 7.30256 23.107 7.82924 23.5453C8.35591 23.9836 9.02053 24.2218 9.70573 24.2177C10.3909 24.2136 11.0527 23.9675 11.5741 23.5229C12.0955 23.0783 12.443 22.4638 12.5553 21.7879C12.6676 21.1119 12.5375 20.418 12.1879 19.8287C11.8383 19.2394 11.2917 18.7925 10.6446 18.5671C10.563 17.4699 10.0694 16.4441 9.26307 15.6956C8.4567 14.9471 7.39711 14.5312 6.29688 14.5313H0.854437C1.15087 13.9539 1.54806 13.4656 2.06537 13.1188C2.19623 13.0322 2.33355 12.9558 2.47613 12.8902C1.92588 11.2782 2.06925 9.39108 2.60013 7.90889C2.93919 6.95564 3.47781 6.0547 4.21794 5.45408C4.70619 5.05689 5.28744 4.79533 5.92294 4.74496C6.20194 3.42164 6.98469 2.32696 8.00187 1.53646ZM16.4688 24.2188H17.9219C19.0781 24.2188 20.1869 23.7595 21.0044 22.9419C21.822 22.1244 22.2812 21.0156 22.2812 19.8594V16.3041C22.9276 16.0755 23.4724 15.6259 23.8193 15.0345C24.1662 14.4432 24.2928 13.7483 24.1769 13.0726C24.061 12.3969 23.7099 11.7839 23.1857 11.342C22.6616 10.9002 21.9981 10.6578 21.3125 10.6578C20.6269 10.6578 19.9634 10.9002 19.4393 11.342C18.9151 11.7839 18.564 12.3969 18.4481 13.0726C18.3322 13.7483 18.4588 14.4432 18.8057 15.0345C19.1526 15.6259 19.6974 16.0755 20.3438 16.3041V19.8594C20.3438 21.1963 19.2588 22.2813 17.9219 22.2813H16.4688V1.69921C16.4687 1.47443 16.5468 1.25661 16.6896 1.08308C16.8892 0.840896 17.1159 0.598709 17.3561 0.408834C17.5693 0.242209 17.9393 2.18587e-05 18.4062 2.18587e-05C20.0637 -0.00395852 21.6768 0.535768 22.9981 1.53646C24.0153 2.32696 24.8 3.42164 25.0771 4.74496C25.7126 4.79339 26.2938 5.05689 26.7821 5.45408C27.5222 6.0547 28.0608 6.95564 28.3999 7.90889C28.9308 9.39108 29.0741 11.2801 28.5239 12.8883C28.6634 12.9541 28.8009 13.0316 28.9346 13.1208C29.4674 13.4753 29.8724 13.9829 30.1708 14.5816C30.7578 15.7538 31 17.3891 31 19.375C31 21.5857 30.1572 23.0698 29.0877 23.9863C28.4963 24.4933 27.7983 24.8609 27.0456 25.0616C26.8518 26.1427 26.3093 27.3943 25.4587 28.4561C24.3544 29.8414 22.6416 31 20.3438 31C18.9177 31 17.7184 30.38 16.8253 29.6476C16.714 29.5569 16.6243 29.4425 16.5626 29.3128C16.5009 29.1832 16.4689 29.0414 16.4688 28.8978V24.2188ZM9.6875 8.71877C9.43057 8.71877 9.18417 8.82083 9.00249 9.00251C8.82082 9.18418 8.71875 9.43059 8.71875 9.68752C8.71875 9.94444 8.82082 10.1908 9.00249 10.3725C9.18417 10.5542 9.43057 10.6563 9.6875 10.6563C9.94443 10.6563 10.1908 10.5542 10.3725 10.3725C10.5542 10.1908 10.6562 9.94444 10.6562 9.68752C10.6562 9.43059 10.5542 9.18418 10.3725 9.00251C10.1908 8.82083 9.94443 8.71877 9.6875 8.71877ZM9.6875 20.3438C9.43057 20.3438 9.18417 20.4458 9.00249 20.6275C8.82082 20.8092 8.71875 21.0556 8.71875 21.3125C8.71875 21.5694 8.82082 21.8158 9.00249 21.9975C9.18417 22.1792 9.43057 22.2813 9.6875 22.2813C9.94443 22.2813 10.1908 22.1792 10.3725 21.9975C10.5542 21.8158 10.6562 21.5694 10.6562 21.3125C10.6562 21.0556 10.5542 20.8092 10.3725 20.6275C10.1908 20.4458 9.94443 20.3438 9.6875 20.3438ZM21.3125 14.5313C21.5694 14.5313 21.8158 14.4292 21.9975 14.2475C22.1792 14.0658 22.2812 13.8194 22.2812 13.5625C22.2812 13.3056 22.1792 13.0592 21.9975 12.8775C21.8158 12.6958 21.5694 12.5938 21.3125 12.5938C21.0556 12.5938 20.8092 12.6958 20.6275 12.8775C20.4458 13.0592 20.3438 13.3056 20.3438 13.5625C20.3438 13.8194 20.4458 14.0658 20.6275 14.2475C20.8092 14.4292 21.0556 14.5313 21.3125 14.5313Z" fill="#7FD5FE"/>
</svg>
