<svg width="27" height="29" viewBox="0 0 27 29" fill="none" xmlns="http://www.w3.org/2000/svg">
<path d="M14.1921 12.163H26.3568V14.1904H14.1921V12.163ZM14.1921 17.2316H22.3019V19.259H14.1921V17.2316ZM14.1921 7.09436H26.3568V9.12181H14.1921V7.09436Z" fill="#7FD5FE"/>
<path d="M18.247 22.3002V26.3551H2.02745V14.1904H10.1372V12.163H6.08234V6.08062C6.0813 5.14823 6.40161 4.24398 6.98932 3.52015C7.57704 2.79632 8.39625 2.29715 9.30897 2.1067C10.2217 1.91625 11.1722 2.04616 12.0003 2.47456C12.8284 2.90296 13.4836 3.60366 13.8556 4.45866L15.7127 3.64768C15.1533 2.36742 14.1703 1.31872 12.9288 0.677823C11.6874 0.0369228 10.2631 -0.157118 8.89545 0.128309C7.52778 0.413736 6.30003 1.16123 5.41854 2.24519C4.53704 3.32914 4.05552 4.68348 4.05489 6.08062V12.163H2.02745C1.4899 12.1635 0.974521 12.3773 0.594418 12.7574C0.214315 13.1375 0.000536742 13.6529 0 14.1904V26.3551C0.000536742 26.8926 0.214315 27.408 0.594418 27.7881C0.974521 28.1682 1.4899 28.382 2.02745 28.3825H18.247C18.7846 28.382 19.2999 28.1682 19.68 27.7881C20.0601 27.408 20.2739 26.8926 20.2745 26.3551V22.3002H18.247Z" fill="#7FD5FE"/>
</svg>
