<svg width="31" height="31" viewBox="0 0 31 31" fill="none" xmlns="http://www.w3.org/2000/svg">
<path d="M31.0001 10.3333H20.6667V0H31.0001V10.3333ZM23.2501 7.75H28.4167V2.58333H23.2501V7.75Z" fill="#7FD5FE"/>
<path d="M16.7916 14.2084V6.45837H6.45825V24.5417H24.5416V14.2084H16.7916ZM9.04159 9.04171H14.2083V14.2084H9.04159V9.04171ZM14.2083 21.9584H9.04159V16.7917H14.2083V21.9584ZM21.9583 21.9584H16.7916V16.7917H21.9583V21.9584Z" fill="#7FD5FE"/>
<path d="M28.4167 31H2.58333C1.8984 30.9993 1.24172 30.7269 0.757396 30.2426C0.273076 29.7583 0.000683907 29.1016 0 28.4167V2.58333C0.000683907 1.8984 0.273076 1.24172 0.757396 0.757396C1.24172 0.273076 1.8984 0.000683907 2.58333 0H15.5V2.58333H2.58333V28.4167H28.4167V15.5H31V28.4167C30.9993 29.1016 30.7269 29.7583 30.2426 30.2426C29.7583 30.7269 29.1016 30.9993 28.4167 31Z" fill="#7FD5FE"/>
</svg>
