<svg width="31" height="31" viewBox="0 0 31 31" fill="none" xmlns="http://www.w3.org/2000/svg">
<path d="M0 3.44444V31H10.3333V28.4167H6.88889V25.8333H10.3333V23.25H3.44444V20.6667H10.3333V18.0833H6.88889V15.5H10.3333V12.9167H3.44444V10.3333H10.3333V3.44444H12.9167V10.3333H15.5V6.88889H18.0833V10.3333H20.6667V3.44444H23.25V10.3333H25.8333V6.88889H28.4167V10.3333H31V0H3.44444C2.53092 0 1.65481 0.362896 1.00885 1.00885C0.362896 1.65481 0 2.53092 0 3.44444ZM5.16667 6.88889C4.7099 6.88889 4.27185 6.70744 3.94887 6.38446C3.62589 6.06148 3.44444 5.62343 3.44444 5.16667C3.44444 4.7099 3.62589 4.27185 3.94887 3.94887C4.27185 3.62589 4.7099 3.44444 5.16667 3.44444C5.62343 3.44444 6.06148 3.62589 6.38446 3.94887C6.70744 4.27185 6.88889 4.7099 6.88889 5.16667C6.88889 5.62343 6.70744 6.06148 6.38446 6.38446C6.06148 6.70744 5.62343 6.88889 5.16667 6.88889Z" fill="#7FD5FE"/>
</svg>
