<svg width="30" height="31" viewBox="0 0 30 31" fill="none" xmlns="http://www.w3.org/2000/svg">
<path d="M26.7466 0V11.2442H27.9667V0H26.7466ZM25.5266 0.885228L19.1961 3.27105L25.5266 5.65619V0.885228ZM8.23641 4.83843C7.89752 4.83843 7.54507 4.99516 7.1994 5.31545C6.77918 5.71071 6.41995 6.34447 6.26406 7.10772C6.10817 7.87778 6.19629 8.60695 6.43351 9.13168C6.67073 9.66322 7.0164 9.96988 7.42307 10.0517C7.82974 10.1403 8.26352 9.99033 8.69053 9.60189C9.10397 9.20664 9.46997 8.57287 9.62586 7.80281C9.77498 7.03275 9.68686 6.30358 9.45642 5.77885C9.21919 5.24731 8.87353 4.94746 8.46686 4.85887C8.3923 4.84524 8.31097 4.83843 8.23641 4.83843ZM5.63373 10.188C5.40328 10.2697 5.16606 10.3583 4.9085 10.4674C3.22421 11.5373 2.04826 12.5935 0.85265 14.2631C0.0942116 15.3194 0.0569337 17.1253 0 18.4542L1.40979 19.0811C1.46875 17.1866 1.43419 16.4029 2.3092 15.3126C2.97546 14.4812 3.61936 13.6089 4.85428 13.3432C4.96272 15.3126 4.67805 18.3656 3.90538 21.4935C5.29484 21.6843 6.45384 21.4458 7.76874 21.0642C11.2051 19.3401 12.7911 20.8052 15.1769 24.1785L16.5664 21.991C14.899 20.0215 13.2791 16.8732 8.62275 18.0862C8.96164 16.2258 9.0023 14.9923 9.20564 13.1387C9.24631 12.321 9.25986 11.51 9.2802 10.7059C8.67697 11.1693 7.93141 11.4146 7.17907 11.2579C6.53518 11.1216 6.00651 10.7195 5.63373 10.188ZM15.4073 10.6854C14.1738 11.8984 13.9027 12.798 12.0049 13.3023L10.4799 11.6667C10.4528 12.539 10.4256 13.4317 10.3511 14.3381C10.995 14.931 11.6524 15.408 11.8897 15.333C14.0111 14.6925 14.6211 13.9497 16.0512 12.4777L15.4073 10.6854ZM24.7133 12.4709V19.013H18.2066V25.5551H11.6999V30.8773C18.6336 30.891 23.0731 30.9523 30 31V12.4709H24.7133ZM6.5284 22.6179C5.60661 22.7883 4.64416 22.8428 3.58411 22.6793C2.84601 25.2348 1.77037 27.7426 0.296191 29.6643L2.91446 30.707C4.74583 28.1242 5.41006 25.8958 6.5284 22.6179Z" fill="#7FD5FE"/>
</svg>
