<svg width="30" height="31" viewBox="0 0 30 31" fill="none" xmlns="http://www.w3.org/2000/svg">
<path d="M13.5 5.90469H9L15 0L21 5.90469H16.5V12.4441C15.375 13.1232 14.37 13.9646 13.5 14.9389V5.90469ZM30 14.7617L24 8.85704V13.2856C21.3946 13.1801 18.8483 14.0684 16.8922 15.7653C14.936 17.4621 13.7208 19.8366 13.5 22.3936C12.3753 22.7865 11.4547 23.6023 10.9402 24.6621C10.4256 25.7219 10.359 26.9393 10.755 28.0473C11.1543 29.1542 11.9833 30.0601 13.0602 30.5664C14.1371 31.0728 15.3741 31.1384 16.5 30.7487C17.6237 30.3544 18.5432 29.5384 19.0576 28.4791C19.5719 27.4197 19.6393 26.2031 19.245 25.0949C18.795 23.8254 17.775 22.8364 16.5 22.3936C17.205 16.4889 23.205 16.1936 23.925 16.1936V20.6221L30 14.7617ZM12.945 15.6327C10.9547 14.121 8.51408 13.2962 6 13.2856V8.85704L0 14.7617L6 20.6664V16.2379C8.01 16.2822 9.945 16.976 11.46 18.3046C11.835 17.3598 12.33 16.4593 12.945 15.6327Z" fill="#7FD5FE"/>
</svg>
