<svg width="30" height="26" viewBox="0 0 30 26" fill="none" xmlns="http://www.w3.org/2000/svg">
<path d="M1.44539 26C1.17747 26 0.933895 25.9335 0.714681 25.8007C0.495467 25.6678 0.324968 25.4935 0.203183 25.2778C0.0813972 25.0611 0.0141717 24.8261 0.00150598 24.5729C-0.0111597 24.3196 0.0560658 24.0731 0.203183 23.8333L13.7214 0.722222C13.8675 0.481481 14.0565 0.300926 14.2884 0.180555C14.5203 0.0601852 14.7575 0 15.0001 0C15.2437 0 15.4814 0.0601852 15.7133 0.180555C15.9452 0.300926 16.1337 0.481481 16.2788 0.722222L29.797 23.8333C29.9432 24.0741 30.0104 24.3211 29.9987 24.5743C29.987 24.8276 29.9198 25.0621 29.797 25.2778C29.6752 25.4944 29.5047 25.6692 29.2855 25.8021C29.0663 25.935 28.8227 26.001 28.5548 26H1.44539ZM15.0001 21.6667C15.4142 21.6667 15.7615 21.528 16.0421 21.2507C16.3227 20.9733 16.4625 20.6305 16.4615 20.2222C16.4615 19.813 16.3212 19.4697 16.0406 19.1923C15.76 18.915 15.4132 18.7768 15.0001 18.7778C14.586 18.7778 14.2387 18.9164 13.9581 19.1938C13.6775 19.4711 13.5377 19.8139 13.5387 20.2222C13.5387 20.6315 13.679 20.9748 13.9596 21.2521C14.2402 21.5294 14.587 21.6676 15.0001 21.6667ZM15.0001 17.3333C15.4142 17.3333 15.7615 17.1947 16.0421 16.9173C16.3227 16.64 16.4625 16.2972 16.4615 15.8889V11.5556C16.4615 11.1463 16.3212 10.803 16.0406 10.5257C15.76 10.2483 15.4132 10.1101 15.0001 10.1111C14.586 10.1111 14.2387 10.2498 13.9581 10.5271C13.6775 10.8044 13.5377 11.1473 13.5387 11.5556V15.8889C13.5387 16.2981 13.679 16.6414 13.9596 16.9188C14.2402 17.1961 14.587 17.3343 15.0001 17.3333Z" fill="#7FD5FE"/>
</svg>
